<?xml version="1.0" encoding="utf-8"?>
<svg width="304px" height="270px" viewbox="0 0 304 270" version="1.1" xmlns:xlink="http://www.w3.org/1999/xlink" xmlns="http://www.w3.org/2000/svg">
  <defs>
    <linearGradient x1="0.5" y1="0" x2="0.5" y2="1" id="gradient_1">
      <stop offset="0" stop-color="#FFFFFF" stop-opacity="0.09803922" />
      <stop offset="1" stop-color="#FFFFFF" stop-opacity="0" />
    </linearGradient>
    <path d="M0 0L304 0L304 270L0 270L0 0Z" id="path_1" />
    <clipPath id="mask_1">
      <use xlink:href="#path_1" />
    </clipPath>
  </defs>
  <g id="image-rules">
    <path d="M0 0L304 0L304 270L0 270L0 0Z" id="Background" fill="none" fill-rule="evenodd" stroke="none" />
    <g clip-path="url(#mask_1)">
      <g id="Group" transform="translate(0 -13)">
        <path d="M0 54.815C0 24.5415 23.8135 0 53.189 0C82.5645 0 106.378 24.5415 106.378 54.815C106.378 85.0885 82.5645 109.63 53.189 109.63C23.8135 109.63 0 85.0885 0 54.815Z" transform="translate(-0 13)" id="Ellipse" fill="#B1B4C5" fill-rule="evenodd" stroke="none" />
        <path d="M0 52.385C0 23.4536 23.8135 0 53.189 0C82.5645 0 106.378 23.4536 106.378 52.385C106.378 81.3164 82.5645 104.77 53.189 104.77C23.8135 104.77 0 81.3164 0 52.385Z" transform="translate(-0 13)" id="Ellipse" fill="url(#gradient_1)" fill-rule="evenodd" stroke="none" />
        <g id="Group" transform="translate(12.357 25.421)">
          <path d="M0 41.044C0 18.376 18.2811 0 40.832 0C63.3829 0 81.664 18.376 81.664 41.044C81.664 63.712 63.3829 82.088 40.832 82.088C18.2811 82.088 0 63.712 0 41.044Z" id="Ellipse" fill="#E1E4ED" fill-rule="evenodd" stroke="none" />
          <path d="M34.1365 8.7639C33.8494 8.65012 33.5409 8.6003 33.2325 8.6179C32.8155 8.6479 32.4775 8.8189 32.2775 9.0989C31.1005 10.7649 30.1365 13.9089 29.3585 16.4359C29.0015 17.6049 28.5225 19.1689 28.1755 19.9109C27.8136 17.8309 28.2225 10.2139 28.3815 7.2809L28.3835 7.2339C28.4935 5.1959 28.5085 4.8379 28.4835 4.6809C28.3095 3.5629 27.8655 2.8289 27.1645 2.5009C26.4565 2.1679 25.5355 2.3149 24.5445 2.9179C24.0475 3.2209 23.9095 4.2629 23.4835 8.9849L23.4815 9.0049C23.2465 11.5999 22.7055 17.5729 22.0405 18.5679C21.2905 17.1759 20.2565 9.2679 19.8105 5.8459C19.4985 3.4489 19.3165 2.0719 19.1945 1.6559C18.9375 0.785896 17.8515 0.044899 16.7765 0.00289917C15.8815 -0.0410995 15.1475 0.4179 14.7965 1.2169C14.1415 1.9529 14.3735 4.3959 15.0985 10.1809C15.4425 12.9349 16.1545 18.6219 15.7065 19.2609C14.8135 19.1619 13.2795 15.5999 11.1475 8.6689C10.5495 6.7269 10.3645 6.1439 10.1805 5.8889C9.81855 4.99789 8.58755 4.3109 7.48455 4.3889C7.39157 4.39531 7.29907 4.40733 7.20755 4.4249C6.62955 4.54089 5.31155 5.0779 5.59255 7.55489C6.37155 10.9899 7.21655 13.5119 8.03755 15.9599L8.05355 16.0099C8.54455 17.4749 9.00855 18.8599 9.44055 20.3979C10.4565 24.0279 10.0616 26.2799 10.0566 26.3049C10.0225 26.5369 9.95155 26.6789 9.84556 26.7279C9.80029 26.7475 9.75183 26.7587 9.70255 26.7609C9.38055 26.7839 8.89755 26.5679 8.64755 26.4279C8.07955 25.3299 5.24755 20.0979 2.68055 19.3729L2.58955 19.3469L2.49655 19.3549C1.55455 19.4449 0.862545 19.8049 0.439548 20.4229C-0.230454 21.4009 0.0465469 22.6469 0.114544 22.8969L0.152546 22.9869C0.172546 23.0239 2.23155 26.8119 2.54955 28.5739C2.82454 30.0849 4.24554 31.7219 5.38755 33.0379L5.43454 33.0919C5.80755 33.5219 6.12954 33.8939 6.38255 34.2379C9.69854 37.7299 14.9405 40.6659 14.9835 40.6899C15.6375 41.1769 16.0015 41.6479 16.0395 42.0529C16.0577 42.206 16.0158 42.3601 15.9225 42.4829L15.8085 42.6029L16.5335 43.3139L30.3655 42.3339L30.9555 39.6039C32.7785 31.8989 32.3975 25.3289 32.3915 25.2849C32.3985 25.0429 32.9095 22.7049 33.3215 20.8169L33.3325 20.7689C34.1525 17.0059 35.1706 12.3249 35.3666 10.5439C35.4515 9.7829 34.9685 9.0839 34.1365 8.7649L34.1365 8.7639Z" transform="translate(22.560453 21.653097)" id="Shape" fill="#8A90AC" fill-rule="evenodd" stroke="none" />
        </g>
        <g id="Group" transform="translate(196 13)">
          <path d="M0 54.815C0 24.5415 24.036 0 53.686 0C83.336 0 107.372 24.5415 107.372 54.815C107.372 85.0885 83.336 109.63 53.686 109.63C24.036 109.63 0 85.0885 0 54.815Z" id="Ellipse" fill="#B1B4C5" fill-rule="evenodd" stroke="none" />
          <path d="M0 52.385C0 23.4536 24.036 0 53.686 0C83.336 0 107.372 23.4536 107.372 52.385C107.372 81.3164 83.336 104.77 53.686 104.77C24.036 104.77 0 81.3164 0 52.385Z" id="Ellipse" fill="url(#gradient_1)" fill-rule="evenodd" stroke="none" />
          <g id="Group" transform="translate(12.472992 12.421)">
            <path d="M0 41.044C0 18.376 18.4521 0 41.214 0C63.9759 0 82.428 18.376 82.428 41.044C82.428 63.712 63.9759 82.088 41.214 82.088C18.4521 82.088 0 63.712 0 41.044Z" id="Ellipse" fill="#E1E4ED" fill-rule="evenodd" stroke="none" />
            <path d="M10.115 18.8944L14.566 12.6604C12.716 12.3534 9.31799 12.2854 6.535 15.0574C2.147 19.4274 0.369995 28.8664 0 31.1504L11.15 42.2554C13.158 42.0854 22.046 40.9024 30.61 32.3744C30.7 32.1904 32.787 30.6544 31.081 28.9564C30.267 28.1464 28.919 28.1604 28.088 28.9894C27.8925 29.1918 27.624 29.3073 27.3427 29.3102C27.0613 29.313 26.7905 29.2029 26.591 29.0044C26.392 28.8067 26.2813 28.5368 26.2841 28.2563C26.287 27.9757 26.403 27.7082 26.606 27.5144L29.632 24.5004C31.17 22.9684 29.721 20.3844 27.574 21.0054L25.097 23.1174C24.6544 23.5002 23.986 23.4542 23.6 23.0144C23.216 22.5714 23.298 21.9004 23.735 21.5224C32.389 13.9604 31.125 14.8724 36.693 9.67443C38.773 7.94943 36.157 4.89843 34.107 6.64443L20.638 18.7084C20.239 19.0473 19.6515 19.0409 19.26 18.6934C18.815 18.3104 18.805 17.7594 19.096 17.3234L28.491 2.77844C29.864 0.926445 27.161 -1.13156 25.715 0.736443L11.824 20.0834C11.6637 20.3133 11.4182 20.4695 11.1422 20.5174C10.8661 20.5653 10.5823 20.5009 10.354 20.3384C10.1273 20.1814 9.97385 19.9393 9.92863 19.6672C9.88341 19.3951 9.95029 19.1164 10.114 18.8944L10.115 18.8944Z" transform="translate(20.339996 21.79756)" id="Shape" fill="#8A90AC" fill-rule="evenodd" stroke="none" />
          </g>
        </g>
        <g id="Group" transform="translate(98 173)">
          <path d="M0 54.815C0 24.5415 24.036 0 53.686 0C83.336 0 107.372 24.5415 107.372 54.815C107.372 85.0885 83.336 109.63 53.686 109.63C24.036 109.63 0 85.0885 0 54.815Z" id="Ellipse" fill="#B1B4C5" fill-rule="evenodd" stroke="none" />
          <path d="M0 52.385C0 23.4536 24.036 0 53.686 0C83.336 0 107.372 23.4536 107.372 52.385C107.372 81.3164 83.336 104.77 53.686 104.77C24.036 104.77 0 81.3164 0 52.385Z" id="Ellipse" fill="url(#gradient_1)" fill-rule="evenodd" stroke="none" />
          <g id="Group" transform="translate(12.473 12.421005)">
            <path d="M0 41.044C0 18.376 18.4521 0 41.214 0C63.9759 0 82.428 18.376 82.428 41.044C82.428 63.712 63.9759 82.088 41.214 82.088C18.4521 82.088 0 63.712 0 41.044Z" id="Ellipse" fill="#E1E4ED" fill-rule="evenodd" stroke="none" />
            <path d="M33.2039 9.04608C32.7289 3.04907 25.9959 3.66107 25.9959 3.66107C23.1539 -1.34892 18.7149 2.28008 18.7149 2.28008C15.3049 -2.63092 11.0279 1.92007 11.0279 1.92007C3.65494 1.12407 3.94095 7.15407 3.94095 7.15407C3.76794 9.07107 4.98094 15.0011 4.98094 15.0011C3.88695 11.5831 1.51395 14.4201 1.51395 14.4201C-1.40306 18.9221 0.792938 21.3871 0.792938 21.3871C4.73994 26.0131 13.1499 31.5671 13.1499 31.5671C16.1959 33.3121 14.9069 34.8671 14.9069 34.8671L33.3269 31.8231L33.7509 28.3291C36.5509 19.8571 33.2039 9.04507 33.2039 9.04507L33.2039 9.04608Z" transform="translate(23.97506 26.103928)" id="Shape" fill="#8A90AC" fill-rule="evenodd" stroke="none" />
          </g>
        </g>
        <g fill="#B1B4C5" stroke="none" id="BEATS">
          <path d="M29.913 12.3355Q30.589 12.654 31.486 12.654Q32.812 12.654 33.6115 11.9585Q34.411 11.263 34.411 10.08Q34.411 9.417 34.125 8.949Q33.839 8.481 33.4165 8.1755Q32.994 7.87 32.24 7.454L31.967 7.298Q31.304 6.973 30.979 6.7715Q30.654 6.57 30.498 6.349Q30.342 6.128 30.342 5.829Q30.342 5.4 30.6085 5.1595Q30.875 4.919 31.343 4.919Q31.902 4.919 32.227 5.231Q32.552 5.543 32.552 6.011L32.552 6.245Q32.552 6.31 32.5975 6.3555Q32.643 6.401 32.708 6.401L34.203 6.401Q34.268 6.401 34.3135 6.3555Q34.359 6.31 34.359 6.245L34.359 5.985Q34.359 5.205 33.982 4.607Q33.605 4.009 32.929 3.6775Q32.253 3.346 31.382 3.346Q30.55 3.346 29.9 3.6515Q29.25 3.957 28.8925 4.5225Q28.535 5.088 28.535 5.842Q28.535 6.596 28.886 7.129Q29.237 7.662 29.731 8Q30.225 8.338 31.005 8.728Q31.642 9.053 31.9475 9.2415Q32.253 9.43 32.422 9.6445Q32.591 9.859 32.591 10.158Q32.591 10.561 32.3245 10.821Q32.058 11.081 31.551 11.081Q30.979 11.081 30.641 10.7755Q30.303 10.47 30.303 10.015L30.303 9.768Q30.303 9.703 30.2575 9.6575Q30.212 9.612 30.147 9.612L28.652 9.612Q28.587 9.612 28.5415 9.6575Q28.496 9.703 28.496 9.768L28.496 10.106Q28.496 10.86 28.8665 11.4385Q29.237 12.017 29.913 12.3355ZM6.617 10.028Q6.617 11.263 5.8175 11.9065Q5.018 12.55 3.757 12.55L0.845 12.55Q0.78 12.55 0.7345 12.5045Q0.689 12.459 0.689 12.394L0.689 3.606Q0.689 3.541 0.7345 3.4955Q0.78 3.45 0.845 3.45L3.562 3.45Q4.953 3.45 5.72 4.0675Q6.487 4.685 6.487 5.946Q6.487 7.233 5.486 7.805Q5.44989 7.82667 5.44989 7.84833Q5.44989 7.86567 5.473 7.883Q6.617 8.533 6.617 10.028ZM13.312 4.867Q13.312 4.932 13.2665 4.9775Q13.221 5.023 13.156 5.023L9.672 5.023Q9.607 5.023 9.607 5.088L9.607 7.116Q9.607 7.1485 9.62325 7.16475Q9.6395 7.181 9.672 7.181L11.843 7.181Q11.908 7.181 11.9535 7.2265Q11.999 7.272 11.999 7.337L11.999 8.598Q11.999 8.663 11.9535 8.7085Q11.908 8.754 11.843 8.754L9.672 8.754Q9.607 8.754 9.607 8.819L9.607 10.912Q9.607 10.977 9.672 10.977L13.156 10.977Q13.221 10.977 13.2665 11.0225Q13.312 11.068 13.312 11.133L13.312 12.394Q13.312 12.459 13.2665 12.5045C13.2362 12.5348 13.1993 12.55 13.156 12.55L7.93 12.55C7.88667 12.55 7.84983 12.5348 7.8195 12.5045Q7.774 12.459 7.774 12.394L7.774 3.606Q7.774 3.541 7.8195 3.4955Q7.865 3.45 7.93 3.45L13.156 3.45Q13.221 3.45 13.2665 3.4955Q13.312 3.541 13.312 3.606L13.312 4.867ZM19.045 12.42Q19.084 12.55 19.227 12.55L20.813 12.55C20.9083 12.55 20.956 12.511 20.956 12.433L20.943 12.381L18.603 3.58Q18.564 3.45 18.421 3.45L16.536 3.45Q16.393 3.45 16.354 3.58L14.014 12.381C13.988 12.4937 14.0313 12.55 14.144 12.55L15.717 12.55C15.8037 12.55 15.86 12.5067 15.886 12.42L16.185 11.146Q16.198 11.094 16.25 11.094L18.681 11.094Q18.733 11.094 18.746 11.146L19.045 12.42ZM27.573 3.45Q27.638 3.45 27.6835 3.4955Q27.729 3.541 27.729 3.606L27.729 4.88Q27.729 4.945 27.6835 4.9905Q27.638 5.036 27.573 5.036L25.597 5.036Q25.532 5.036 25.532 5.101L25.532 12.394Q25.532 12.459 25.4865 12.5045C25.4562 12.5348 25.4193 12.55 25.376 12.55L23.855 12.55C23.8117 12.55 23.7748 12.5348 23.7445 12.5045Q23.699 12.459 23.699 12.394L23.699 5.101Q23.699 5.036 23.634 5.036L21.723 5.036Q21.658 5.036 21.6125 4.9905Q21.567 4.945 21.567 4.88L21.567 3.606Q21.567 3.541 21.6125 3.4955Q21.658 3.45 21.723 3.45L27.573 3.45ZM2.587 5.023Q2.522 5.023 2.522 5.088L2.522 7.129Q2.522 7.1615 2.53825 7.17775Q2.5545 7.194 2.587 7.194L3.575 7.194Q4.095 7.194 4.394 6.908Q4.693 6.622 4.693 6.115Q4.693 5.595 4.4005 5.309Q4.108 5.023 3.575 5.023L2.587 5.023ZM16.549 9.6575Q16.523 9.638 16.536 9.599L17.407 5.829Q17.42 5.777 17.446 5.777Q17.472 5.777 17.485 5.829L18.382 9.599Q18.395 9.638 18.369 9.6575Q18.343 9.677 18.317 9.677L16.601 9.677Q16.575 9.677 16.549 9.6575ZM3.679 10.964Q4.199 10.964 4.4915 10.6585Q4.784 10.353 4.784 9.794Q4.784 9.235 4.4915 8.9165Q4.199 8.598 3.679 8.598L2.587 8.598Q2.522 8.598 2.522 8.663L2.522 10.899Q2.522 10.9315 2.53825 10.9478Q2.5545 10.964 2.587 10.964L3.679 10.964Z" />
        </g>
        <g fill="#B1B4C5" stroke="none" id="BEATS">
          <path d="M29.913 12.3355Q30.589 12.654 31.486 12.654Q32.812 12.654 33.6115 11.9585Q34.411 11.263 34.411 10.08Q34.411 9.417 34.125 8.949Q33.839 8.481 33.4165 8.1755Q32.994 7.87 32.24 7.454L31.967 7.298Q31.304 6.973 30.979 6.7715Q30.654 6.57 30.498 6.349Q30.342 6.128 30.342 5.829Q30.342 5.4 30.6085 5.1595Q30.875 4.919 31.343 4.919Q31.902 4.919 32.227 5.231Q32.552 5.543 32.552 6.011L32.552 6.245Q32.552 6.31 32.5975 6.3555Q32.643 6.401 32.708 6.401L34.203 6.401Q34.268 6.401 34.3135 6.3555Q34.359 6.31 34.359 6.245L34.359 5.985Q34.359 5.205 33.982 4.607Q33.605 4.009 32.929 3.6775Q32.253 3.346 31.382 3.346Q30.55 3.346 29.9 3.6515Q29.25 3.957 28.8925 4.5225Q28.535 5.088 28.535 5.842Q28.535 6.596 28.886 7.129Q29.237 7.662 29.731 8Q30.225 8.338 31.005 8.728Q31.642 9.053 31.9475 9.2415Q32.253 9.43 32.422 9.6445Q32.591 9.859 32.591 10.158Q32.591 10.561 32.3245 10.821Q32.058 11.081 31.551 11.081Q30.979 11.081 30.641 10.7755Q30.303 10.47 30.303 10.015L30.303 9.768Q30.303 9.703 30.2575 9.6575Q30.212 9.612 30.147 9.612L28.652 9.612Q28.587 9.612 28.5415 9.6575Q28.496 9.703 28.496 9.768L28.496 10.106Q28.496 10.86 28.8665 11.4385Q29.237 12.017 29.913 12.3355ZM6.617 10.028Q6.617 11.263 5.8175 11.9065Q5.018 12.55 3.757 12.55L0.845 12.55Q0.78 12.55 0.7345 12.5045Q0.689 12.459 0.689 12.394L0.689 3.606Q0.689 3.541 0.7345 3.4955Q0.78 3.45 0.845 3.45L3.562 3.45Q4.953 3.45 5.72 4.0675Q6.487 4.685 6.487 5.946Q6.487 7.233 5.486 7.805Q5.44989 7.82667 5.44989 7.84833Q5.44989 7.86567 5.473 7.883Q6.617 8.533 6.617 10.028ZM13.312 4.867Q13.312 4.932 13.2665 4.9775Q13.221 5.023 13.156 5.023L9.672 5.023Q9.607 5.023 9.607 5.088L9.607 7.116Q9.607 7.1485 9.62325 7.16475Q9.6395 7.181 9.672 7.181L11.843 7.181Q11.908 7.181 11.9535 7.2265Q11.999 7.272 11.999 7.337L11.999 8.598Q11.999 8.663 11.9535 8.7085Q11.908 8.754 11.843 8.754L9.672 8.754Q9.607 8.754 9.607 8.819L9.607 10.912Q9.607 10.977 9.672 10.977L13.156 10.977Q13.221 10.977 13.2665 11.0225Q13.312 11.068 13.312 11.133L13.312 12.394Q13.312 12.459 13.2665 12.5045C13.2362 12.5348 13.1993 12.55 13.156 12.55L7.93 12.55C7.88667 12.55 7.84983 12.5348 7.8195 12.5045Q7.774 12.459 7.774 12.394L7.774 3.606Q7.774 3.541 7.8195 3.4955Q7.865 3.45 7.93 3.45L13.156 3.45Q13.221 3.45 13.2665 3.4955Q13.312 3.541 13.312 3.606L13.312 4.867ZM19.045 12.42Q19.084 12.55 19.227 12.55L20.813 12.55C20.9083 12.55 20.956 12.511 20.956 12.433L20.943 12.381L18.603 3.58Q18.564 3.45 18.421 3.45L16.536 3.45Q16.393 3.45 16.354 3.58L14.014 12.381C13.988 12.4937 14.0313 12.55 14.144 12.55L15.717 12.55C15.8037 12.55 15.86 12.5067 15.886 12.42L16.185 11.146Q16.198 11.094 16.25 11.094L18.681 11.094Q18.733 11.094 18.746 11.146L19.045 12.42ZM27.573 3.45Q27.638 3.45 27.6835 3.4955Q27.729 3.541 27.729 3.606L27.729 4.88Q27.729 4.945 27.6835 4.9905Q27.638 5.036 27.573 5.036L25.597 5.036Q25.532 5.036 25.532 5.101L25.532 12.394Q25.532 12.459 25.4865 12.5045C25.4562 12.5348 25.4193 12.55 25.376 12.55L23.855 12.55C23.8117 12.55 23.7748 12.5348 23.7445 12.5045Q23.699 12.459 23.699 12.394L23.699 5.101Q23.699 5.036 23.634 5.036L21.723 5.036Q21.658 5.036 21.6125 4.9905Q21.567 4.945 21.567 4.88L21.567 3.606Q21.567 3.541 21.6125 3.4955Q21.658 3.45 21.723 3.45L27.573 3.45ZM2.587 5.023Q2.522 5.023 2.522 5.088L2.522 7.129Q2.522 7.1615 2.53825 7.17775Q2.5545 7.194 2.587 7.194L3.575 7.194Q4.095 7.194 4.394 6.908Q4.693 6.622 4.693 6.115Q4.693 5.595 4.4005 5.309Q4.108 5.023 3.575 5.023L2.587 5.023ZM16.549 9.6575Q16.523 9.638 16.536 9.599L17.407 5.829Q17.42 5.777 17.446 5.777Q17.472 5.777 17.485 5.829L18.382 9.599Q18.395 9.638 18.369 9.6575Q18.343 9.677 18.317 9.677L16.601 9.677Q16.575 9.677 16.549 9.6575ZM3.679 10.964Q4.199 10.964 4.4915 10.6585Q4.784 10.353 4.784 9.794Q4.784 9.235 4.4915 8.9165Q4.199 8.598 3.679 8.598L2.587 8.598Q2.522 8.598 2.522 8.663L2.522 10.899Q2.522 10.9315 2.53825 10.9478Q2.5545 10.964 2.587 10.964L3.679 10.964Z" />
        </g>
        <g fill="#B1B4C5" stroke="none" id="BEATS">
          <path d="M29.913 12.3355Q30.589 12.654 31.486 12.654Q32.812 12.654 33.6115 11.9585Q34.411 11.263 34.411 10.08Q34.411 9.417 34.125 8.949Q33.839 8.481 33.4165 8.1755Q32.994 7.87 32.24 7.454L31.967 7.298Q31.304 6.973 30.979 6.7715Q30.654 6.57 30.498 6.349Q30.342 6.128 30.342 5.829Q30.342 5.4 30.6085 5.1595Q30.875 4.919 31.343 4.919Q31.902 4.919 32.227 5.231Q32.552 5.543 32.552 6.011L32.552 6.245Q32.552 6.31 32.5975 6.3555Q32.643 6.401 32.708 6.401L34.203 6.401Q34.268 6.401 34.3135 6.3555Q34.359 6.31 34.359 6.245L34.359 5.985Q34.359 5.205 33.982 4.607Q33.605 4.009 32.929 3.6775Q32.253 3.346 31.382 3.346Q30.55 3.346 29.9 3.6515Q29.25 3.957 28.8925 4.5225Q28.535 5.088 28.535 5.842Q28.535 6.596 28.886 7.129Q29.237 7.662 29.731 8Q30.225 8.338 31.005 8.728Q31.642 9.053 31.9475 9.2415Q32.253 9.43 32.422 9.6445Q32.591 9.859 32.591 10.158Q32.591 10.561 32.3245 10.821Q32.058 11.081 31.551 11.081Q30.979 11.081 30.641 10.7755Q30.303 10.47 30.303 10.015L30.303 9.768Q30.303 9.703 30.2575 9.6575Q30.212 9.612 30.147 9.612L28.652 9.612Q28.587 9.612 28.5415 9.6575Q28.496 9.703 28.496 9.768L28.496 10.106Q28.496 10.86 28.8665 11.4385Q29.237 12.017 29.913 12.3355ZM6.617 10.028Q6.617 11.263 5.8175 11.9065Q5.018 12.55 3.757 12.55L0.845 12.55Q0.78 12.55 0.7345 12.5045Q0.689 12.459 0.689 12.394L0.689 3.606Q0.689 3.541 0.7345 3.4955Q0.78 3.45 0.845 3.45L3.562 3.45Q4.953 3.45 5.72 4.0675Q6.487 4.685 6.487 5.946Q6.487 7.233 5.486 7.805Q5.44989 7.82667 5.44989 7.84833Q5.44989 7.86567 5.473 7.883Q6.617 8.533 6.617 10.028ZM13.312 4.867Q13.312 4.932 13.2665 4.9775Q13.221 5.023 13.156 5.023L9.672 5.023Q9.607 5.023 9.607 5.088L9.607 7.116Q9.607 7.1485 9.62325 7.16475Q9.6395 7.181 9.672 7.181L11.843 7.181Q11.908 7.181 11.9535 7.2265Q11.999 7.272 11.999 7.337L11.999 8.598Q11.999 8.663 11.9535 8.7085Q11.908 8.754 11.843 8.754L9.672 8.754Q9.607 8.754 9.607 8.819L9.607 10.912Q9.607 10.977 9.672 10.977L13.156 10.977Q13.221 10.977 13.2665 11.0225Q13.312 11.068 13.312 11.133L13.312 12.394Q13.312 12.459 13.2665 12.5045C13.2362 12.5348 13.1993 12.55 13.156 12.55L7.93 12.55C7.88667 12.55 7.84983 12.5348 7.8195 12.5045Q7.774 12.459 7.774 12.394L7.774 3.606Q7.774 3.541 7.8195 3.4955Q7.865 3.45 7.93 3.45L13.156 3.45Q13.221 3.45 13.2665 3.4955Q13.312 3.541 13.312 3.606L13.312 4.867ZM19.045 12.42Q19.084 12.55 19.227 12.55L20.813 12.55C20.9083 12.55 20.956 12.511 20.956 12.433L20.943 12.381L18.603 3.58Q18.564 3.45 18.421 3.45L16.536 3.45Q16.393 3.45 16.354 3.58L14.014 12.381C13.988 12.4937 14.0313 12.55 14.144 12.55L15.717 12.55C15.8037 12.55 15.86 12.5067 15.886 12.42L16.185 11.146Q16.198 11.094 16.25 11.094L18.681 11.094Q18.733 11.094 18.746 11.146L19.045 12.42ZM27.573 3.45Q27.638 3.45 27.6835 3.4955Q27.729 3.541 27.729 3.606L27.729 4.88Q27.729 4.945 27.6835 4.9905Q27.638 5.036 27.573 5.036L25.597 5.036Q25.532 5.036 25.532 5.101L25.532 12.394Q25.532 12.459 25.4865 12.5045C25.4562 12.5348 25.4193 12.55 25.376 12.55L23.855 12.55C23.8117 12.55 23.7748 12.5348 23.7445 12.5045Q23.699 12.459 23.699 12.394L23.699 5.101Q23.699 5.036 23.634 5.036L21.723 5.036Q21.658 5.036 21.6125 4.9905Q21.567 4.945 21.567 4.88L21.567 3.606Q21.567 3.541 21.6125 3.4955Q21.658 3.45 21.723 3.45L27.573 3.45ZM2.587 5.023Q2.522 5.023 2.522 5.088L2.522 7.129Q2.522 7.1615 2.53825 7.17775Q2.5545 7.194 2.587 7.194L3.575 7.194Q4.095 7.194 4.394 6.908Q4.693 6.622 4.693 6.115Q4.693 5.595 4.4005 5.309Q4.108 5.023 3.575 5.023L2.587 5.023ZM16.549 9.6575Q16.523 9.638 16.536 9.599L17.407 5.829Q17.42 5.777 17.446 5.777Q17.472 5.777 17.485 5.829L18.382 9.599Q18.395 9.638 18.369 9.6575Q18.343 9.677 18.317 9.677L16.601 9.677Q16.575 9.677 16.549 9.6575ZM3.679 10.964Q4.199 10.964 4.4915 10.6585Q4.784 10.353 4.784 9.794Q4.784 9.235 4.4915 8.9165Q4.199 8.598 3.679 8.598L2.587 8.598Q2.522 8.598 2.522 8.663L2.522 10.899Q2.522 10.9315 2.53825 10.9478Q2.5545 10.964 2.587 10.964L3.679 10.964Z" />
        </g>
        <g id="Group" transform="translate(125.91385 53.467712)">
          <path d="M50 2C50 1.44772 49.8047 0.976311 49.4142 0.585785C49.0237 0.195263 48.5523 0 48 0L2 0C1.44772 0 0.976318 0.195263 0.585785 0.585785C0.195267 0.976311 7.62939e-06 1.44772 0 2C7.62939e-06 2.55228 0.195267 3.02369 0.585785 3.41422C0.976318 3.80474 1.44772 4 2 4L48 4C48.5523 4 49.0237 3.80474 49.4142 3.41422C49.8047 3.02369 50 2.55228 50 2L50 2Z" transform="translate(1.0861511 8.532288)" id="Rectangle" fill="#B1B4C5" fill-rule="evenodd" stroke="none" />
          <path d="M9.12315 0.547287L0.53315 9.27529C-0.182846 10.0023 -0.176849 11.1713 0.54615 11.8913C0.891937 12.2357 1.36081 12.428 1.84885 12.4256C2.3369 12.4231 2.80382 12.2261 3.14615 11.8783L11.7361 3.15029C12.4521 2.42315 12.4463 1.25428 11.7231 0.534286C11.3773 0.189873 10.9085 -0.00241852 10.4204 2.28882e-05C9.9324 0.00246048 9.46548 0.199432 9.12315 0.547287L9.12315 0.547287Z" id="Shape" fill="#B1B4C5" fill-rule="evenodd" stroke="none" />
          <path d="M11.7361 9.27529L3.14614 0.547287C2.80381 0.199432 2.33689 0.00246048 1.84885 2.28882e-05C1.3608 -0.00241852 0.891937 0.189873 0.54615 0.534286C-0.176857 1.25429 -0.182854 2.42329 0.53315 3.15029L9.12315 11.8783C9.46548 12.2261 9.9324 12.4231 10.4204 12.4256C10.9085 12.428 11.3774 12.2357 11.7231 11.8913C12.4463 11.1713 12.4521 10.0024 11.7361 9.27529L11.7361 9.27529Z" transform="translate(7.6293945E-06 8.639)" id="Shape" fill="#B1B4C5" fill-rule="evenodd" stroke="none" />
        </g>
        <g id="Group" transform="translate(81.23109 129.33765)">
          <path d="M0.855896 0.364738C0.403488 0.681519 0.129333 1.11185 0.033432 1.65575C-0.0624695 2.19964 0.047966 2.69779 0.364746 3.1502L26.7493 40.8312C27.066 41.2836 27.4964 41.5577 28.0403 41.6537C28.5842 41.7496 29.0823 41.6391 29.5347 41.3223C29.9871 41.0056 30.2613 40.5752 30.3572 40.0313C30.4531 39.4874 30.3426 38.9893 30.0259 38.5369L3.64136 0.855896C3.32458 0.403488 2.89424 0.129333 2.35034 0.033432C1.80645 -0.0624695 1.3083 0.047966 0.855896 0.364738L0.855896 0.364738Z" id="Rectangle" fill="#B1B4C5" fill-rule="evenodd" stroke="none" />
          <path d="M1.52916 3.6595L13.6057 5.68983C14.612 5.85934 15.5661 5.18393 15.7412 4.17871C15.825 3.69791 15.7136 3.20354 15.4316 2.80516C15.1497 2.40677 14.7206 2.13727 14.2392 2.05637L2.16267 0.0260315C1.15637 -0.143372 0.202232 0.53183 0.0272217 1.53716C-0.0565643 2.01796 0.0548477 2.51233 0.336777 2.91071C0.618706 3.3091 1.04787 3.57858 1.52916 3.6595L1.52916 3.6595Z" transform="translate(15.216484 36.806488)" id="Shape" fill="#B1B4C5" fill-rule="evenodd" stroke="none" />
          <path d="M2.25299 1.51901L0.0304565 13.5617C-0.058136 14.0417 0.0483322 14.5371 0.326263 14.9383C0.604195 15.3395 1.03064 15.6133 1.51111 15.699C2.51559 15.8782 3.47662 15.2126 3.66146 14.2091L5.88399 2.16644C5.97259 1.68649 5.86613 1.19104 5.5882 0.789856C5.31026 0.388672 4.88381 0.114899 4.40335 0.0291901C3.3988 -0.150192 2.43799 0.515472 2.25299 1.51901L2.25299 1.51901Z" transform="translate(27.220116 26.845215)" id="Shape" fill="#B1B4C5" fill-rule="evenodd" stroke="none" />
        </g>
        <g id="Group" transform="translate(196.2309 130.0896)">
          <path d="M0.855896 41.3223C0.403488 41.0056 0.129333 40.5752 0.033432 40.0314C-0.0624847 39.4874 0.0479584 38.9893 0.364746 38.5369L26.7493 0.855896C27.066 0.403496 27.4964 0.129341 28.0403 0.0334396C28.5842 -0.0624771 29.0823 0.047966 29.5347 0.364746C29.9871 0.681526 30.2613 1.11185 30.3572 1.65575C30.4531 2.19965 30.3427 2.69781 30.0259 3.15021L3.64136 40.8312C3.32457 41.2836 2.89423 41.5578 2.35034 41.6537C1.80646 41.7496 1.3083 41.6391 0.855896 41.3223L0.855896 41.3223Z" transform="translate(0 0.88625336)" id="Rectangle" fill="#B1B4C5" fill-rule="evenodd" stroke="none" />
          <path d="M1.52916 2.0564L13.6058 0.0260544C14.612 -0.143463 15.5661 0.531975 15.7412 1.53719C15.825 2.01799 15.7136 2.51235 15.4317 2.91074C15.1497 3.30913 14.7205 3.57864 14.2392 3.65952L2.16267 5.68987C1.15639 5.85926 0.202225 5.18406 0.0272217 4.17874C-0.0565643 3.69794 0.0548553 3.20357 0.336777 2.80518C0.618713 2.40681 1.04787 2.13731 1.52916 2.0564L1.52916 2.0564Z" transform="translate(15.216476 0.050956726)" id="Shape" fill="#B1B4C5" fill-rule="evenodd" stroke="none" />
          <path d="M2.25299 14.2091L0.0304565 2.16642C-0.058136 1.68648 0.0483246 1.19102 0.326248 0.789833C0.604187 0.388641 1.03062 0.114883 1.51111 0.0291595C2.51558 -0.150101 3.47662 0.515503 3.66145 1.51899L5.884 13.5617C5.97259 14.0416 5.86613 14.5371 5.5882 14.9383C5.31026 15.3395 4.88382 15.6132 4.40337 15.6989C3.3988 15.8783 2.43797 15.2126 2.25299 14.2091L2.25299 14.2091Z" transform="translate(27.220108 0)" id="Shape" fill="#B1B4C5" fill-rule="evenodd" stroke="none" />
        </g>
      </g>
    </g>
  </g>
</svg>