<?xml version="1.0" encoding="utf-8"?>
<svg width="162px" height="99px" viewbox="0 0 162 99" version="1.1" xmlns:xlink="http://www.w3.org/1999/xlink" xmlns="http://www.w3.org/2000/svg">
  <defs>
    <path d="M0 0L162 0L162 99L0 99L0 0Z" id="path_1" />
    <clipPath id="mask_1">
      <use xlink:href="#path_1" />
    </clipPath>
  </defs>
  <g id="logo">
    <path d="M0 0L162 0L162 99L0 99L0 0Z" id="Background" fill="none" fill-rule="evenodd" stroke="none" />
    <g clip-path="url(#mask_1)">
      <g id="Group" transform="translate(3.3199463 0.6799927)">
        <path d="M5.96007 28.32C6.08786 28.3223 6.21092 28.2716 6.30007 28.18C6.39166 28.0909 6.44233 27.9678 6.44007 27.84L6.44007 16.92C6.44007 16.787 6.50707 16.72 6.64007 16.72L9.16007 16.72C9.24007 16.72 9.30707 16.773 9.36007 16.88L13.4001 27.92C13.4801 28.187 13.6671 28.32 13.9601 28.32L18.8401 28.32C19.1331 28.32 19.2801 28.2 19.2801 27.96C19.2824 27.8911 19.2687 27.8227 19.2401 27.76L14.6801 16.28C14.6271 16.147 14.6671 16.053 14.8001 16C16.1601 15.387 17.2131 14.453 17.9601 13.2C18.7071 11.947 19.0801 10.467 19.0801 8.76C19.0801 7.107 18.7471 5.64001 18.0801 4.36C17.4434 3.11155 16.4565 2.07591 15.2401 1.38C14.0131 0.673002 12.6131 0.320004 11.0401 0.320004L1.28007 0.320004C1.15227 0.317738 1.02922 0.368404 0.940068 0.460003C0.848473 0.549152 0.797802 0.672203 0.800068 0.800003L0.800068 27.84C0.800068 27.973 0.847069 28.087 0.940068 28.18C1.03307 28.273 1.14707 28.32 1.28007 28.32L5.96007 28.32L5.96007 28.32ZM10.1201 12.4L6.64007 12.4C6.50707 12.4 6.44007 12.333 6.44007 12.2L6.44007 5.36C6.44007 5.227 6.50707 5.16 6.64007 5.16L10.1201 5.16C11.1071 5.16 11.9071 5.487 12.5201 6.14C13.1331 6.793 13.4401 7.68 13.4401 8.8C13.4401 9.893 13.1331 10.767 12.5201 11.42C11.9071 12.073 11.1071 12.4 10.1201 12.4L10.1201 12.4ZM31.3201 28.68C33.1601 28.68 34.7871 28.307 36.2001 27.56C37.6131 26.813 38.7071 25.76 39.4801 24.4C40.2531 23.04 40.6401 21.453 40.6401 19.64L40.6401 9C40.6401 7.213 40.2531 5.64 39.4801 4.28C38.7071 2.92 37.6131 1.867 36.2001 1.12C34.7871 0.373003 33.1601 1.90735e-06 31.3201 1.90735e-06C29.4801 1.90735e-06 27.8601 0.373001 26.4601 1.12C25.0911 1.83655 23.9589 2.93406 23.2001 4.28C22.4271 5.64 22.0401 7.213 22.0401 9L22.0401 19.64C22.0401 21.453 22.4271 23.04 23.2001 24.4C23.9589 25.7459 25.0911 26.8435 26.4601 27.56C27.8601 28.307 29.4801 28.68 31.3201 28.68L31.3201 28.68ZM31.3201 23.84C30.2271 23.84 29.3471 23.473 28.6801 22.74C28.0131 22.007 27.6801 21.053 27.6801 19.88L27.6801 8.84C27.6801 7.64 28.0131 6.673 28.6801 5.94C29.3471 5.207 30.2271 4.84 31.3201 4.84C32.4401 4.84 33.3331 5.207 34.0001 5.94C34.6671 6.673 35.0001 7.64 35.0001 8.84L35.0001 19.88C35.0001 21.053 34.6671 22.007 34.0001 22.74C33.3331 23.473 32.4401 23.84 31.3201 23.84L31.3201 23.84ZM53.0801 28.64C54.8931 28.64 56.4931 28.287 57.8801 27.58C59.2671 26.873 60.3401 25.867 61.1001 24.56C61.8601 23.253 62.2401 21.747 62.2401 20.04L62.2401 19.92C62.2423 19.7922 62.1917 19.6692 62.1001 19.58C62.0109 19.4884 61.8879 19.4377 61.7601 19.44L57.0801 19.24C56.7601 19.24 56.6001 19.387 56.6001 19.68L56.6001 20.2C56.6001 21.293 56.2801 22.167 55.6401 22.82C55.0001 23.473 54.1471 23.8 53.0801 23.8C52.0131 23.8 51.1601 23.473 50.5201 22.82C49.8801 22.167 49.5601 21.293 49.5601 20.2L49.5601 8.48C49.5601 7.387 49.8801 6.507 50.5201 5.84C51.1601 5.173 52.0131 4.84 53.0801 4.84C54.1471 4.84 55.0001 5.173 55.6401 5.84C56.2801 6.507 56.6001 7.387 56.6001 8.48L56.6001 9C56.6001 9.293 56.7601 9.44 57.0801 9.44L61.7601 9.24C61.8918 9.24075 62.0167 9.18194 62.1001 9.08C62.1901 8.98173 62.2401 8.85328 62.2401 8.72L62.2401 8.52C62.2401 6.813 61.8601 5.32 61.1001 4.04C60.3401 2.76 59.2671 1.767 57.8801 1.06C56.4931 0.352999 54.8931 0 53.0801 0C51.2671 0 49.6671 0.360001 48.2801 1.08C46.8931 1.8 45.8201 2.82 45.0601 4.14C44.3001 5.46 43.9201 6.987 43.9201 8.72L43.9201 19.84C43.9201 21.6 44.3001 23.147 45.0601 24.48C45.8072 25.801 46.9272 26.8723 48.2801 27.56C49.6671 28.28 51.2671 28.64 53.0801 28.64L53.0801 28.64ZM71.0001 28.32C71.1279 28.3223 71.2509 28.2716 71.3401 28.18C71.4317 28.0909 71.4823 27.9678 71.4801 27.84L71.4801 19.84C71.4801 19.787 71.5071 19.707 71.5601 19.6L73.3601 17C73.4131 16.92 73.4671 16.88 73.5201 16.88C73.5731 16.88 73.6131 16.92 73.6401 17L79.3201 27.96C79.4531 28.2 79.6401 28.32 79.8801 28.32L85.0001 28.32C85.2931 28.32 85.4401 28.213 85.4401 28C85.4304 27.9153 85.4031 27.8336 85.3601 27.76L77.5201 12.64C77.4933 12.5486 77.4933 12.4514 77.5201 12.36L84.9201 0.880003C85.0271 0.720003 85.0471 0.587004 84.9801 0.480003C84.9131 0.373003 84.7871 0.320004 84.6001 0.320004L79.4401 0.320004C79.2087 0.315123 78.9934 0.438143 78.8801 0.640003L71.7201 11.52C71.6931 11.6 71.6471 11.627 71.5801 11.6C71.5131 11.573 71.4801 11.52 71.4801 11.44L71.4801 0.800001C71.4823 0.672201 71.4317 0.54915 71.3401 0.460001C71.2509 0.368404 71.1279 0.317736 71.0001 0.320002L66.3201 0.320002C66.1923 0.317736 66.0692 0.368404 65.9801 0.460001C65.8885 0.54915 65.8378 0.672201 65.8401 0.800001L65.8401 27.84C65.8401 27.973 65.8871 28.087 65.9801 28.18C66.0731 28.273 66.1871 28.32 66.3201 28.32L71.0001 28.32L71.0001 28.32ZM5.84007 60.32C5.96787 60.3223 6.09092 60.2716 6.18007 60.18C6.27167 60.0909 6.32233 59.9678 6.32007 59.84L6.32007 49.44C6.32007 49.307 6.38707 49.24 6.52007 49.24L10.8401 49.24C12.4401 49.24 13.8601 48.893 15.1001 48.2C16.3258 47.5212 17.3267 46.4995 17.9801 45.26C18.6601 43.993 19.0001 42.533 19.0001 40.88C19.0001 39.2 18.6601 37.707 17.9801 36.4C17.3001 35.093 16.3401 34.08 15.1001 33.36C13.8601 32.64 12.4401 32.28 10.8401 32.28L1.16006 32.28C1.03227 32.2777 0.909218 32.3284 0.820065 32.42C0.72847 32.5092 0.677799 32.6322 0.680065 32.76L0.680065 59.84C0.680065 59.973 0.727066 60.087 0.820065 60.18C0.913063 60.273 1.02707 60.32 1.16006 60.32L5.84007 60.32L5.84007 60.32ZM9.92007 44.76L6.52007 44.76C6.38707 44.76 6.32006 44.693 6.32006 44.56L6.32006 37.36C6.32006 37.227 6.38707 37.16 6.52007 37.16L9.92007 37.16C10.9601 37.16 11.7931 37.507 12.4201 38.2C13.0471 38.893 13.3601 39.827 13.3601 41C13.3601 42.147 13.0471 43.06 12.4201 43.74C11.7931 44.42 10.9601 44.76 9.92007 44.76L9.92007 44.76ZM26.0401 60.32C26.3071 60.32 26.4801 60.187 26.5601 59.92L27.4801 56C27.5071 55.893 27.5731 55.84 27.6801 55.84L35.1601 55.84C35.2671 55.84 35.3331 55.893 35.3601 56L36.2801 59.92C36.3601 60.187 36.5471 60.32 36.8401 60.32L41.7201 60.32C42.0131 60.32 42.1601 60.2 42.1601 59.96L42.1201 59.8L34.9201 32.72C34.8401 32.453 34.6531 32.32 34.3601 32.32L28.5601 32.32C28.2671 32.32 28.0801 32.453 28.0001 32.72L20.8001 59.8C20.7201 60.147 20.8531 60.32 21.2001 60.32L26.0401 60.32L26.0401 60.32ZM34.0401 51.48L28.7601 51.48C28.7016 51.4781 28.6454 51.4571 28.6001 51.42C28.5471 51.38 28.5331 51.32 28.5601 51.24L31.2401 39.64C31.2671 39.533 31.3071 39.48 31.3601 39.48C31.4131 39.48 31.4531 39.533 31.4801 39.64L34.2401 51.24C34.2671 51.32 34.2531 51.38 34.2001 51.42C34.1548 51.4571 34.0985 51.4781 34.0401 51.48L34.0401 51.48ZM50.1601 60.32C50.2879 60.3223 50.4109 60.2716 50.5001 60.18C50.5917 60.0909 50.6423 59.9678 50.6401 59.84L50.6401 49.44C50.6401 49.307 50.7071 49.24 50.8401 49.24L55.1601 49.24C56.7601 49.24 58.1801 48.893 59.4201 48.2C60.6458 47.5212 61.6467 46.4995 62.3001 45.26C62.9801 43.993 63.3201 42.533 63.3201 40.88C63.3201 39.2 62.9801 37.707 62.3001 36.4C61.6201 35.093 60.6601 34.08 59.4201 33.36C58.1801 32.64 56.7601 32.28 55.1601 32.28L45.4801 32.28C45.3523 32.2777 45.2292 32.3284 45.1401 32.42C45.0485 32.5092 44.9978 32.6322 45.0001 32.76L45.0001 59.84C45.0001 59.973 45.0471 60.087 45.1401 60.18C45.2331 60.273 45.3471 60.32 45.4801 60.32L50.1601 60.32L50.1601 60.32ZM54.2401 44.76L50.8401 44.76C50.7071 44.76 50.6401 44.693 50.6401 44.56L50.6401 37.36C50.6401 37.227 50.7071 37.16 50.8401 37.16L54.2401 37.16C55.2801 37.16 56.1131 37.507 56.7401 38.2C57.3671 38.893 57.6801 39.827 57.6801 41C57.6801 42.147 57.3671 43.06 56.7401 43.74C56.1131 44.42 55.2801 44.76 54.2401 44.76L54.2401 44.76ZM82.9201 60.32C83.0479 60.3223 83.1709 60.2716 83.2601 60.18C83.3517 60.0909 83.4023 59.9678 83.4001 59.84L83.4001 55.96C83.4023 55.8322 83.3517 55.7092 83.2601 55.62C83.1709 55.5284 83.0479 55.4777 82.9201 55.48L72.2001 55.48C72.0671 55.48 72.0001 55.413 72.0001 55.28L72.0001 48.84C72.0001 48.707 72.0671 48.64 72.2001 48.64L78.8801 48.64C79.0079 48.6423 79.1309 48.5916 79.2201 48.5C79.3117 48.4109 79.3623 48.2878 79.3601 48.16L79.3601 44.28C79.3623 44.1522 79.3117 44.0292 79.2201 43.94C79.1309 43.8484 79.0079 43.7978 78.8801 43.8L72.2001 43.8C72.0671 43.8 72.0001 43.733 72.0001 43.6L72.0001 37.36C72.0001 37.227 72.0671 37.16 72.2001 37.16L82.9201 37.16C83.0479 37.1623 83.1709 37.1116 83.2601 37.02C83.3517 36.9309 83.4023 36.8078 83.4001 36.68L83.4001 32.8C83.4023 32.6722 83.3517 32.5492 83.2601 32.46C83.1709 32.3684 83.0479 32.3178 82.9201 32.32L66.8401 32.32C66.7123 32.3178 66.5892 32.3684 66.5001 32.46C66.4085 32.5492 66.3578 32.6722 66.3601 32.8L66.3601 59.84C66.3601 59.973 66.4071 60.087 66.5001 60.18C66.5931 60.273 66.7071 60.32 66.8401 60.32L82.9201 60.32L82.9201 60.32ZM91.9601 60.32C92.0879 60.3223 92.2109 60.2716 92.3001 60.18C92.3917 60.0909 92.4423 59.9678 92.4401 59.84L92.4401 48.92C92.4401 48.787 92.5071 48.72 92.6401 48.72L95.1601 48.72C95.2401 48.72 95.3071 48.773 95.3601 48.88L99.4001 59.92C99.4801 60.187 99.6671 60.32 99.9601 60.32L104.84 60.32C105.133 60.32 105.28 60.2 105.28 59.96C105.282 59.8911 105.269 59.8227 105.24 59.76L100.68 48.28C100.627 48.147 100.667 48.053 100.8 48C102.16 47.387 103.213 46.453 103.96 45.2C104.707 43.947 105.08 42.467 105.08 40.76C105.08 39.107 104.747 37.64 104.08 36.36C103.443 35.1115 102.456 34.0759 101.24 33.38C100.013 32.673 98.6131 32.32 97.0401 32.32L87.2801 32.32C87.1523 32.3177 87.0292 32.3684 86.9401 32.46C86.8485 32.5491 86.7978 32.6722 86.8001 32.8L86.8001 59.84C86.8001 59.973 86.8471 60.087 86.9401 60.18C87.0331 60.273 87.1471 60.32 87.2801 60.32L91.9601 60.32L91.9601 60.32ZM96.1201 44.4L92.6401 44.4C92.5071 44.4 92.4401 44.333 92.4401 44.2L92.4401 37.36C92.4401 37.227 92.5071 37.16 92.6401 37.16L96.1201 37.16C97.1071 37.16 97.9071 37.487 98.5201 38.14C99.1331 38.793 99.4401 39.68 99.4401 40.8C99.4401 41.893 99.1331 42.767 98.5201 43.42C97.9071 44.073 97.1071 44.4 96.1201 44.4L96.1201 44.4ZM9.20007 92.64C11.9201 92.64 14.1001 91.927 15.7401 90.5C17.3801 89.073 18.2001 87.147 18.2001 84.72C18.2001 83.36 17.9071 82.2 17.3201 81.24C16.7599 80.3089 16.0186 79.4996 15.1401 78.86C14.2731 78.233 13.0671 77.493 11.5201 76.64L10.6801 76.16C9.32007 75.493 8.30707 74.953 7.64007 74.54C6.97307 74.127 6.48007 73.693 6.16007 73.24C5.84007 72.787 5.68007 72.253 5.68007 71.64C5.68007 70.76 5.95307 70.073 6.50007 69.58C7.04707 69.087 7.80007 68.84 8.76007 68.84C9.90707 68.84 10.8131 69.16 11.4801 69.8C12.1471 70.44 12.4801 71.24 12.4801 72.2L12.4801 72.92C12.4801 73.053 12.5271 73.167 12.6201 73.26C12.7131 73.353 12.8271 73.4 12.9601 73.4L17.5601 73.4C17.6879 73.4023 17.8109 73.3516 17.9001 73.26C17.9917 73.1709 18.0423 73.0478 18.0401 72.92L18.0401 72.12C18.0401 70.52 17.6531 69.107 16.8801 67.88C16.1071 66.653 15.0271 65.7 13.6401 65.02C12.2531 64.34 10.6671 64 8.88007 64C7.17307 64 5.65307 64.313 4.32006 64.94C2.98706 65.567 1.95306 66.46 1.22007 67.62C0.487065 68.78 0.120068 70.133 0.120068 71.68C0.120068 73.227 0.480068 74.547 1.20007 75.64C1.92007 76.733 2.78707 77.627 3.80007 78.32C4.81307 79.013 6.12007 79.76 7.72007 80.56C9.02707 81.227 9.99307 81.753 10.6201 82.14C11.2471 82.527 11.7331 82.94 12.0801 83.38C12.4271 83.82 12.6001 84.347 12.6001 84.96C12.6001 85.787 12.3271 86.467 11.7801 87C11.2331 87.533 10.4401 87.8 9.40007 87.8C8.22707 87.8 7.29307 87.487 6.60007 86.86C5.90707 86.233 5.56007 85.453 5.56007 84.52L5.56007 83.76C5.56233 83.6322 5.51167 83.5092 5.42007 83.42C5.33092 83.3284 5.20787 83.2777 5.08007 83.28L0.480072 83.28C0.352276 83.2777 0.229225 83.3284 0.140072 83.42C0.0484774 83.5092 -0.0021894 83.6322 7.27177e-05 83.76L7.27177e-05 84.8C7.27177e-05 86.347 0.380074 87.713 1.14007 88.9C1.90007 90.087 2.97307 91.007 4.36007 91.66C5.74707 92.313 7.36007 92.64 9.20007 92.64L9.20007 92.64ZM30.2801 92.64C32.0931 92.64 33.6931 92.287 35.0801 91.58C36.4671 90.873 37.5401 89.867 38.3001 88.56C39.0601 87.253 39.4401 85.747 39.4401 84.04L39.4401 83.92C39.4423 83.7922 39.3917 83.6692 39.3001 83.58C39.2109 83.4884 39.0879 83.4378 38.9601 83.44L34.2801 83.24C33.9601 83.24 33.8001 83.387 33.8001 83.68L33.8001 84.2C33.8001 85.293 33.4801 86.167 32.8401 86.82C32.2001 87.473 31.3471 87.8 30.2801 87.8C29.2131 87.8 28.3601 87.473 27.7201 86.82C27.0801 86.167 26.7601 85.293 26.7601 84.2L26.7601 72.48C26.7601 71.387 27.0801 70.507 27.7201 69.84C28.3601 69.173 29.2131 68.84 30.2801 68.84C31.3471 68.84 32.2001 69.173 32.8401 69.84C33.4801 70.507 33.8001 71.387 33.8001 72.48L33.8001 73C33.8001 73.293 33.9601 73.44 34.2801 73.44L38.9601 73.24C39.0918 73.2408 39.2167 73.182 39.3001 73.08C39.3901 72.9817 39.4401 72.8533 39.4401 72.72L39.4401 72.52C39.4401 70.813 39.0601 69.32 38.3001 68.04C37.5401 66.76 36.4671 65.767 35.0801 65.06C33.6931 64.353 32.0931 64 30.2801 64C28.4671 64 26.8671 64.36 25.4801 65.08C24.0931 65.8 23.0201 66.82 22.2601 68.14C21.5001 69.46 21.1201 70.987 21.1201 72.72L21.1201 83.84C21.1201 85.6 21.5001 87.147 22.2601 88.48C23.0072 89.801 24.1272 90.8724 25.4801 91.56C26.8671 92.28 28.4671 92.64 30.2801 92.64L30.2801 92.64ZM48.2001 92.32C48.3279 92.3223 48.4509 92.2716 48.5401 92.18C48.6317 92.0909 48.6823 91.9678 48.6801 91.84L48.6801 64.8C48.6823 64.6722 48.6317 64.5492 48.5401 64.46C48.4509 64.3684 48.3279 64.3177 48.2001 64.32L43.5201 64.32C43.3923 64.3177 43.2692 64.3684 43.1801 64.46C43.0885 64.5492 43.0378 64.6722 43.0401 64.8L43.0401 91.84C43.0401 91.973 43.0871 92.087 43.1801 92.18C43.2731 92.273 43.3871 92.32 43.5201 92.32L48.2001 92.32L48.2001 92.32ZM61.2801 92.64C64.0001 92.64 66.1801 91.927 67.8201 90.5C69.4601 89.073 70.2801 87.147 70.2801 84.72C70.2801 83.36 69.9871 82.2 69.4001 81.24C68.8399 80.3089 68.0986 79.4996 67.2201 78.86C66.3531 78.233 65.1471 77.493 63.6001 76.64L62.7601 76.16C61.4001 75.493 60.3871 74.953 59.7201 74.54C59.0531 74.127 58.5601 73.693 58.2401 73.24C57.9201 72.787 57.7601 72.253 57.7601 71.64C57.7601 70.76 58.0331 70.073 58.5801 69.58C59.1271 69.087 59.8801 68.84 60.8401 68.84C61.9871 68.84 62.8931 69.16 63.5601 69.8C64.2271 70.44 64.5601 71.24 64.5601 72.2L64.5601 72.92C64.5601 73.053 64.6071 73.167 64.7001 73.26C64.7931 73.353 64.9071 73.4 65.0401 73.4L69.6401 73.4C69.7679 73.4023 69.8909 73.3516 69.9801 73.26C70.0717 73.1709 70.1223 73.0478 70.1201 72.92L70.1201 72.12C70.1201 70.52 69.7331 69.107 68.9601 67.88C68.1871 66.653 67.1071 65.7 65.7201 65.02C64.3331 64.34 62.7471 64 60.9601 64C59.2531 64 57.7331 64.313 56.4001 64.94C55.0671 65.567 54.0331 66.46 53.3001 67.62C52.5671 68.78 52.2001 70.133 52.2001 71.68C52.2001 73.227 52.5601 74.547 53.2801 75.64C54.0001 76.733 54.8671 77.627 55.8801 78.32C56.8931 79.013 58.2001 79.76 59.8001 80.56C61.1071 81.227 62.0731 81.753 62.7001 82.14C63.3271 82.527 63.8131 82.94 64.1601 83.38C64.5071 83.82 64.6801 84.347 64.6801 84.96C64.6801 85.787 64.4071 86.467 63.8601 87C63.3131 87.533 62.5201 87.8 61.4801 87.8C60.3071 87.8 59.3731 87.487 58.6801 86.86C57.9871 86.233 57.6401 85.453 57.6401 84.52L57.6401 83.76C57.6423 83.6322 57.5917 83.5092 57.5001 83.42C57.4109 83.3284 57.2879 83.2777 57.1601 83.28L52.5601 83.28C52.4323 83.2777 52.3092 83.3284 52.2201 83.42C52.1285 83.5092 52.0778 83.6322 52.0801 83.76L52.0801 84.8C52.0801 86.347 52.4601 87.713 53.2201 88.9C53.9801 90.087 55.0531 91.007 56.4401 91.66C57.8271 92.313 59.4401 92.64 61.2801 92.64L61.2801 92.64ZM82.0801 92.64C84.8001 92.64 86.9801 91.927 88.6201 90.5C90.2601 89.073 91.0801 87.147 91.0801 84.72C91.0801 83.36 90.7871 82.2 90.2001 81.24C89.6399 80.3089 88.8986 79.4996 88.0201 78.86C87.1531 78.233 85.9471 77.493 84.4001 76.64L83.5601 76.16C82.2001 75.493 81.1871 74.953 80.5201 74.54C79.8531 74.127 79.3601 73.693 79.0401 73.24C78.7201 72.787 78.5601 72.253 78.5601 71.64C78.5601 70.76 78.8331 70.073 79.3801 69.58C79.9271 69.087 80.6801 68.84 81.6401 68.84C82.7871 68.84 83.6931 69.16 84.3601 69.8C85.0271 70.44 85.3601 71.24 85.3601 72.2L85.3601 72.92C85.3601 73.053 85.4071 73.167 85.5001 73.26C85.5931 73.353 85.7071 73.4 85.8401 73.4L90.4401 73.4C90.5679 73.4023 90.6909 73.3516 90.7801 73.26C90.8717 73.1709 90.9223 73.0478 90.9201 72.92L90.9201 72.12C90.9201 70.52 90.5331 69.107 89.7601 67.88C88.9871 66.653 87.9071 65.7 86.5201 65.02C85.1331 64.34 83.5471 64 81.7601 64C80.0531 64 78.5331 64.313 77.2001 64.94C75.8671 65.567 74.8331 66.46 74.1001 67.62C73.3671 68.78 73.0001 70.133 73.0001 71.68C73.0001 73.227 73.3601 74.547 74.0801 75.64C74.8001 76.733 75.6671 77.627 76.6801 78.32C77.6931 79.013 79.0001 79.76 80.6001 80.56C81.9071 81.227 82.8731 81.753 83.5001 82.14C84.1271 82.527 84.6131 82.94 84.9601 83.38C85.3071 83.82 85.4801 84.347 85.4801 84.96C85.4801 85.787 85.2071 86.467 84.6601 87C84.1131 87.533 83.3201 87.8 82.2801 87.8C81.1071 87.8 80.1731 87.487 79.4801 86.86C78.7871 86.233 78.4401 85.453 78.4401 84.52L78.4401 83.76C78.4423 83.6322 78.3917 83.5092 78.3001 83.42C78.2109 83.3284 78.0879 83.2777 77.9601 83.28L73.3601 83.28C73.2323 83.2777 73.1092 83.3284 73.0201 83.42C72.9285 83.5092 72.8778 83.6322 72.8801 83.76L72.8801 84.8C72.8801 86.347 73.2601 87.713 74.0201 88.9C74.7801 90.087 75.8531 91.007 77.2401 91.66C78.6271 92.313 80.2401 92.64 82.0801 92.64L82.0801 92.64ZM103.28 92.68C105.12 92.68 106.747 92.307 108.16 91.56C109.573 90.813 110.667 89.76 111.44 88.4C112.213 87.04 112.6 85.453 112.6 83.64L112.6 73C112.6 71.213 112.213 69.64 111.44 68.28C110.667 66.92 109.573 65.867 108.16 65.12C106.747 64.373 105.12 64 103.28 64C101.44 64 99.8201 64.373 98.4201 65.12C97.0511 65.8365 95.9189 66.9341 95.1601 68.28C94.3871 69.64 94.0001 71.213 94.0001 73L94.0001 83.64C94.0001 85.453 94.3871 87.04 95.1601 88.4C95.9189 89.7459 97.0511 90.8435 98.4201 91.56C99.8201 92.307 101.44 92.68 103.28 92.68L103.28 92.68ZM103.28 87.84C102.187 87.84 101.307 87.473 100.64 86.74C99.9731 86.007 99.6401 85.053 99.6401 83.88L99.6401 72.84C99.6401 71.64 99.9731 70.673 100.64 69.94C101.307 69.207 102.187 68.84 103.28 68.84C104.4 68.84 105.293 69.207 105.96 69.94C106.627 70.673 106.96 71.64 106.96 72.84L106.96 83.88C106.96 85.053 106.627 86.007 105.96 86.74C105.293 87.473 104.4 87.84 103.28 87.84L103.28 87.84ZM121.52 92.32C121.648 92.3223 121.771 92.2716 121.86 92.18C121.952 92.0909 122.002 91.9678 122 91.84L122 80.92C122 80.787 122.067 80.72 122.2 80.72L124.72 80.72C124.8 80.72 124.867 80.773 124.92 80.88L128.96 91.92C129.04 92.187 129.227 92.32 129.52 92.32L134.4 92.32C134.693 92.32 134.84 92.2 134.84 91.96C134.842 91.8911 134.829 91.8227 134.8 91.76L130.24 80.28C130.187 80.147 130.227 80.053 130.36 80C131.72 79.387 132.773 78.453 133.52 77.2C134.267 75.947 134.64 74.467 134.64 72.76C134.64 71.107 134.307 69.64 133.64 68.36C133.003 67.1115 132.016 66.0759 130.8 65.38C129.573 64.673 128.173 64.32 126.6 64.32L116.84 64.32C116.712 64.3177 116.589 64.3684 116.5 64.46C116.409 64.5491 116.358 64.6722 116.36 64.8L116.36 91.84C116.36 91.973 116.407 92.087 116.5 92.18C116.593 92.273 116.707 92.32 116.84 92.32L121.52 92.32L121.52 92.32ZM125.68 76.4L122.2 76.4C122.067 76.4 122 76.333 122 76.2L122 69.36C122 69.227 122.067 69.16 122.2 69.16L125.68 69.16C126.667 69.16 127.467 69.487 128.08 70.14C128.693 70.793 129 71.68 129 72.8C129 73.893 128.693 74.767 128.08 75.42C127.467 76.073 126.667 76.4 125.68 76.4L125.68 76.4ZM146.48 92.64C149.2 92.64 151.38 91.927 153.02 90.5C154.66 89.073 155.48 87.147 155.48 84.72C155.48 83.36 155.187 82.2 154.6 81.24C154.04 80.3089 153.299 79.4996 152.42 78.86C151.553 78.233 150.347 77.493 148.8 76.64L147.96 76.16C146.6 75.493 145.587 74.953 144.92 74.54C144.253 74.127 143.76 73.693 143.44 73.24C143.12 72.787 142.96 72.253 142.96 71.64C142.96 70.76 143.233 70.073 143.78 69.58C144.327 69.087 145.08 68.84 146.04 68.84C147.187 68.84 148.093 69.16 148.76 69.8C149.427 70.44 149.76 71.24 149.76 72.2L149.76 72.92C149.76 73.053 149.807 73.167 149.9 73.26C149.993 73.353 150.107 73.4 150.24 73.4L154.84 73.4C154.968 73.4023 155.091 73.3516 155.18 73.26C155.272 73.1709 155.322 73.0478 155.32 72.92L155.32 72.12C155.32 70.52 154.933 69.107 154.16 67.88C153.387 66.653 152.307 65.7 150.92 65.02C149.533 64.34 147.947 64 146.16 64C144.453 64 142.933 64.313 141.6 64.94C140.267 65.567 139.233 66.46 138.5 67.62C137.767 68.78 137.4 70.133 137.4 71.68C137.4 73.227 137.76 74.547 138.48 75.64C139.2 76.733 140.067 77.627 141.08 78.32C142.093 79.013 143.4 79.76 145 80.56C146.307 81.227 147.273 81.753 147.9 82.14C148.527 82.527 149.013 82.94 149.36 83.38C149.707 83.82 149.88 84.347 149.88 84.96C149.88 85.787 149.607 86.467 149.06 87C148.513 87.533 147.72 87.8 146.68 87.8C145.507 87.8 144.573 87.487 143.88 86.86C143.187 86.233 142.84 85.453 142.84 84.52L142.84 83.76C142.842 83.6322 142.792 83.5092 142.7 83.42C142.611 83.3284 142.488 83.2778 142.36 83.28L137.76 83.28C137.632 83.2777 137.509 83.3284 137.42 83.42C137.329 83.5092 137.278 83.6322 137.28 83.76L137.28 84.8C137.28 86.347 137.66 87.713 138.42 88.9C139.18 90.087 140.253 91.007 141.64 91.66C143.027 92.313 144.64 92.64 146.48 92.64L146.48 92.64Z" id="b" fill="#000000" fill-rule="evenodd" stroke="none" />
        <path d="M5.96007 28.32C6.08786 28.3223 6.21092 28.2716 6.30007 28.18C6.39166 28.0909 6.44233 27.9678 6.44007 27.84L6.44007 16.92C6.44007 16.787 6.50707 16.72 6.64007 16.72L9.16007 16.72C9.24007 16.72 9.30707 16.773 9.36007 16.88L13.4001 27.92C13.4801 28.187 13.6671 28.32 13.9601 28.32L18.8401 28.32C19.1331 28.32 19.2801 28.2 19.2801 27.96C19.2824 27.8911 19.2687 27.8227 19.2401 27.76L14.6801 16.28C14.6271 16.147 14.6671 16.053 14.8001 16C16.1601 15.387 17.2131 14.453 17.9601 13.2C18.7071 11.947 19.0801 10.467 19.0801 8.76C19.0801 7.107 18.7471 5.64001 18.0801 4.36C17.4434 3.11155 16.4565 2.07591 15.2401 1.38C14.0131 0.673002 12.6131 0.320004 11.0401 0.320004L1.28007 0.320004C1.15227 0.317738 1.02922 0.368404 0.940068 0.460003C0.848473 0.549152 0.797802 0.672203 0.800068 0.800003L0.800068 27.84C0.800068 27.973 0.847069 28.087 0.940068 28.18C1.03307 28.273 1.14707 28.32 1.28007 28.32L5.96007 28.32L5.96007 28.32ZM10.1201 12.4L6.64007 12.4C6.50707 12.4 6.44007 12.333 6.44007 12.2L6.44007 5.36C6.44007 5.227 6.50707 5.16 6.64007 5.16L10.1201 5.16C11.1071 5.16 11.9071 5.487 12.5201 6.14C13.1331 6.793 13.4401 7.68 13.4401 8.8C13.4401 9.893 13.1331 10.767 12.5201 11.42C11.9071 12.073 11.1071 12.4 10.1201 12.4L10.1201 12.4ZM31.3201 28.68C33.1601 28.68 34.7871 28.307 36.2001 27.56C37.6131 26.813 38.7071 25.76 39.4801 24.4C40.2531 23.04 40.6401 21.453 40.6401 19.64L40.6401 9C40.6401 7.213 40.2531 5.64 39.4801 4.28C38.7071 2.92 37.6131 1.867 36.2001 1.12C34.7871 0.373003 33.1601 1.90735e-06 31.3201 1.90735e-06C29.4801 1.90735e-06 27.8601 0.373001 26.4601 1.12C25.0911 1.83655 23.9589 2.93406 23.2001 4.28C22.4271 5.64 22.0401 7.213 22.0401 9L22.0401 19.64C22.0401 21.453 22.4271 23.04 23.2001 24.4C23.9589 25.7459 25.0911 26.8435 26.4601 27.56C27.8601 28.307 29.4801 28.68 31.3201 28.68L31.3201 28.68ZM31.3201 23.84C30.2271 23.84 29.3471 23.473 28.6801 22.74C28.0131 22.007 27.6801 21.053 27.6801 19.88L27.6801 8.84C27.6801 7.64 28.0131 6.673 28.6801 5.94C29.3471 5.207 30.2271 4.84 31.3201 4.84C32.4401 4.84 33.3331 5.207 34.0001 5.94C34.6671 6.673 35.0001 7.64 35.0001 8.84L35.0001 19.88C35.0001 21.053 34.6671 22.007 34.0001 22.74C33.3331 23.473 32.4401 23.84 31.3201 23.84L31.3201 23.84ZM53.0801 28.64C54.8931 28.64 56.4931 28.287 57.8801 27.58C59.2671 26.873 60.3401 25.867 61.1001 24.56C61.8601 23.253 62.2401 21.747 62.2401 20.04L62.2401 19.92C62.2423 19.7922 62.1917 19.6692 62.1001 19.58C62.0109 19.4884 61.8879 19.4377 61.7601 19.44L57.0801 19.24C56.7601 19.24 56.6001 19.387 56.6001 19.68L56.6001 20.2C56.6001 21.293 56.2801 22.167 55.6401 22.82C55.0001 23.473 54.1471 23.8 53.0801 23.8C52.0131 23.8 51.1601 23.473 50.5201 22.82C49.8801 22.167 49.5601 21.293 49.5601 20.2L49.5601 8.48C49.5601 7.387 49.8801 6.507 50.5201 5.84C51.1601 5.173 52.0131 4.84 53.0801 4.84C54.1471 4.84 55.0001 5.173 55.6401 5.84C56.2801 6.507 56.6001 7.387 56.6001 8.48L56.6001 9C56.6001 9.293 56.7601 9.44 57.0801 9.44L61.7601 9.24C61.8918 9.24075 62.0167 9.18194 62.1001 9.08C62.1901 8.98173 62.2401 8.85328 62.2401 8.72L62.2401 8.52C62.2401 6.813 61.8601 5.32 61.1001 4.04C60.3401 2.76 59.2671 1.767 57.8801 1.06C56.4931 0.352999 54.8931 0 53.0801 0C51.2671 0 49.6671 0.360001 48.2801 1.08C46.8931 1.8 45.8201 2.82 45.0601 4.14C44.3001 5.46 43.9201 6.987 43.9201 8.72L43.9201 19.84C43.9201 21.6 44.3001 23.147 45.0601 24.48C45.8072 25.801 46.9272 26.8723 48.2801 27.56C49.6671 28.28 51.2671 28.64 53.0801 28.64L53.0801 28.64ZM71.0001 28.32C71.1279 28.3223 71.2509 28.2716 71.3401 28.18C71.4317 28.0909 71.4823 27.9678 71.4801 27.84L71.4801 19.84C71.4801 19.787 71.5071 19.707 71.5601 19.6L73.3601 17C73.4131 16.92 73.4671 16.88 73.5201 16.88C73.5731 16.88 73.6131 16.92 73.6401 17L79.3201 27.96C79.4531 28.2 79.6401 28.32 79.8801 28.32L85.0001 28.32C85.2931 28.32 85.4401 28.213 85.4401 28C85.4304 27.9153 85.4031 27.8336 85.3601 27.76L77.5201 12.64C77.4933 12.5486 77.4933 12.4514 77.5201 12.36L84.9201 0.880003C85.0271 0.720003 85.0471 0.587004 84.9801 0.480003C84.9131 0.373003 84.7871 0.320004 84.6001 0.320004L79.4401 0.320004C79.2087 0.315123 78.9934 0.438143 78.8801 0.640003L71.7201 11.52C71.6931 11.6 71.6471 11.627 71.5801 11.6C71.5131 11.573 71.4801 11.52 71.4801 11.44L71.4801 0.800001C71.4823 0.672201 71.4317 0.54915 71.3401 0.460001C71.2509 0.368404 71.1279 0.317736 71.0001 0.320002L66.3201 0.320002C66.1923 0.317736 66.0692 0.368404 65.9801 0.460001C65.8885 0.54915 65.8378 0.672201 65.8401 0.800001L65.8401 27.84C65.8401 27.973 65.8871 28.087 65.9801 28.18C66.0731 28.273 66.1871 28.32 66.3201 28.32L71.0001 28.32L71.0001 28.32ZM5.84007 60.32C5.96787 60.3223 6.09092 60.2716 6.18007 60.18C6.27167 60.0909 6.32233 59.9678 6.32007 59.84L6.32007 49.44C6.32007 49.307 6.38707 49.24 6.52007 49.24L10.8401 49.24C12.4401 49.24 13.8601 48.893 15.1001 48.2C16.3258 47.5212 17.3267 46.4995 17.9801 45.26C18.6601 43.993 19.0001 42.533 19.0001 40.88C19.0001 39.2 18.6601 37.707 17.9801 36.4C17.3001 35.093 16.3401 34.08 15.1001 33.36C13.8601 32.64 12.4401 32.28 10.8401 32.28L1.16006 32.28C1.03227 32.2777 0.909218 32.3284 0.820065 32.42C0.72847 32.5092 0.677799 32.6322 0.680065 32.76L0.680065 59.84C0.680065 59.973 0.727066 60.087 0.820065 60.18C0.913063 60.273 1.02707 60.32 1.16006 60.32L5.84007 60.32L5.84007 60.32ZM9.92007 44.76L6.52007 44.76C6.38707 44.76 6.32006 44.693 6.32006 44.56L6.32006 37.36C6.32006 37.227 6.38707 37.16 6.52007 37.16L9.92007 37.16C10.9601 37.16 11.7931 37.507 12.4201 38.2C13.0471 38.893 13.3601 39.827 13.3601 41C13.3601 42.147 13.0471 43.06 12.4201 43.74C11.7931 44.42 10.9601 44.76 9.92007 44.76L9.92007 44.76ZM26.0401 60.32C26.3071 60.32 26.4801 60.187 26.5601 59.92L27.4801 56C27.5071 55.893 27.5731 55.84 27.6801 55.84L35.1601 55.84C35.2671 55.84 35.3331 55.893 35.3601 56L36.2801 59.92C36.3601 60.187 36.5471 60.32 36.8401 60.32L41.7201 60.32C42.0131 60.32 42.1601 60.2 42.1601 59.96L42.1201 59.8L34.9201 32.72C34.8401 32.453 34.6531 32.32 34.3601 32.32L28.5601 32.32C28.2671 32.32 28.0801 32.453 28.0001 32.72L20.8001 59.8C20.7201 60.147 20.8531 60.32 21.2001 60.32L26.0401 60.32L26.0401 60.32ZM34.0401 51.48L28.7601 51.48C28.7016 51.4781 28.6454 51.4571 28.6001 51.42C28.5471 51.38 28.5331 51.32 28.5601 51.24L31.2401 39.64C31.2671 39.533 31.3071 39.48 31.3601 39.48C31.4131 39.48 31.4531 39.533 31.4801 39.64L34.2401 51.24C34.2671 51.32 34.2531 51.38 34.2001 51.42C34.1548 51.4571 34.0985 51.4781 34.0401 51.48L34.0401 51.48ZM50.1601 60.32C50.2879 60.3223 50.4109 60.2716 50.5001 60.18C50.5917 60.0909 50.6423 59.9678 50.6401 59.84L50.6401 49.44C50.6401 49.307 50.7071 49.24 50.8401 49.24L55.1601 49.24C56.7601 49.24 58.1801 48.893 59.4201 48.2C60.6458 47.5212 61.6467 46.4995 62.3001 45.26C62.9801 43.993 63.3201 42.533 63.3201 40.88C63.3201 39.2 62.9801 37.707 62.3001 36.4C61.6201 35.093 60.6601 34.08 59.4201 33.36C58.1801 32.64 56.7601 32.28 55.1601 32.28L45.4801 32.28C45.3523 32.2777 45.2292 32.3284 45.1401 32.42C45.0485 32.5092 44.9978 32.6322 45.0001 32.76L45.0001 59.84C45.0001 59.973 45.0471 60.087 45.1401 60.18C45.2331 60.273 45.3471 60.32 45.4801 60.32L50.1601 60.32L50.1601 60.32ZM54.2401 44.76L50.8401 44.76C50.7071 44.76 50.6401 44.693 50.6401 44.56L50.6401 37.36C50.6401 37.227 50.7071 37.16 50.8401 37.16L54.2401 37.16C55.2801 37.16 56.1131 37.507 56.7401 38.2C57.3671 38.893 57.6801 39.827 57.6801 41C57.6801 42.147 57.3671 43.06 56.7401 43.74C56.1131 44.42 55.2801 44.76 54.2401 44.76L54.2401 44.76ZM82.9201 60.32C83.0479 60.3223 83.1709 60.2716 83.2601 60.18C83.3517 60.0909 83.4023 59.9678 83.4001 59.84L83.4001 55.96C83.4023 55.8322 83.3517 55.7092 83.2601 55.62C83.1709 55.5284 83.0479 55.4777 82.9201 55.48L72.2001 55.48C72.0671 55.48 72.0001 55.413 72.0001 55.28L72.0001 48.84C72.0001 48.707 72.0671 48.64 72.2001 48.64L78.8801 48.64C79.0079 48.6423 79.1309 48.5916 79.2201 48.5C79.3117 48.4109 79.3623 48.2878 79.3601 48.16L79.3601 44.28C79.3623 44.1522 79.3117 44.0292 79.2201 43.94C79.1309 43.8484 79.0079 43.7978 78.8801 43.8L72.2001 43.8C72.0671 43.8 72.0001 43.733 72.0001 43.6L72.0001 37.36C72.0001 37.227 72.0671 37.16 72.2001 37.16L82.9201 37.16C83.0479 37.1623 83.1709 37.1116 83.2601 37.02C83.3517 36.9309 83.4023 36.8078 83.4001 36.68L83.4001 32.8C83.4023 32.6722 83.3517 32.5492 83.2601 32.46C83.1709 32.3684 83.0479 32.3178 82.9201 32.32L66.8401 32.32C66.7123 32.3178 66.5892 32.3684 66.5001 32.46C66.4085 32.5492 66.3578 32.6722 66.3601 32.8L66.3601 59.84C66.3601 59.973 66.4071 60.087 66.5001 60.18C66.5931 60.273 66.7071 60.32 66.8401 60.32L82.9201 60.32L82.9201 60.32ZM91.9601 60.32C92.0879 60.3223 92.2109 60.2716 92.3001 60.18C92.3917 60.0909 92.4423 59.9678 92.4401 59.84L92.4401 48.92C92.4401 48.787 92.5071 48.72 92.6401 48.72L95.1601 48.72C95.2401 48.72 95.3071 48.773 95.3601 48.88L99.4001 59.92C99.4801 60.187 99.6671 60.32 99.9601 60.32L104.84 60.32C105.133 60.32 105.28 60.2 105.28 59.96C105.282 59.8911 105.269 59.8227 105.24 59.76L100.68 48.28C100.627 48.147 100.667 48.053 100.8 48C102.16 47.387 103.213 46.453 103.96 45.2C104.707 43.947 105.08 42.467 105.08 40.76C105.08 39.107 104.747 37.64 104.08 36.36C103.443 35.1115 102.456 34.0759 101.24 33.38C100.013 32.673 98.6131 32.32 97.0401 32.32L87.2801 32.32C87.1523 32.3177 87.0292 32.3684 86.9401 32.46C86.8485 32.5491 86.7978 32.6722 86.8001 32.8L86.8001 59.84C86.8001 59.973 86.8471 60.087 86.9401 60.18C87.0331 60.273 87.1471 60.32 87.2801 60.32L91.9601 60.32L91.9601 60.32ZM96.1201 44.4L92.6401 44.4C92.5071 44.4 92.4401 44.333 92.4401 44.2L92.4401 37.36C92.4401 37.227 92.5071 37.16 92.6401 37.16L96.1201 37.16C97.1071 37.16 97.9071 37.487 98.5201 38.14C99.1331 38.793 99.4401 39.68 99.4401 40.8C99.4401 41.893 99.1331 42.767 98.5201 43.42C97.9071 44.073 97.1071 44.4 96.1201 44.4L96.1201 44.4ZM9.20007 92.64C11.9201 92.64 14.1001 91.927 15.7401 90.5C17.3801 89.073 18.2001 87.147 18.2001 84.72C18.2001 83.36 17.9071 82.2 17.3201 81.24C16.7599 80.3089 16.0186 79.4996 15.1401 78.86C14.2731 78.233 13.0671 77.493 11.5201 76.64L10.6801 76.16C9.32007 75.493 8.30707 74.953 7.64007 74.54C6.97307 74.127 6.48007 73.693 6.16007 73.24C5.84007 72.787 5.68007 72.253 5.68007 71.64C5.68007 70.76 5.95307 70.073 6.50007 69.58C7.04707 69.087 7.80007 68.84 8.76007 68.84C9.90707 68.84 10.8131 69.16 11.4801 69.8C12.1471 70.44 12.4801 71.24 12.4801 72.2L12.4801 72.92C12.4801 73.053 12.5271 73.167 12.6201 73.26C12.7131 73.353 12.8271 73.4 12.9601 73.4L17.5601 73.4C17.6879 73.4023 17.8109 73.3516 17.9001 73.26C17.9917 73.1709 18.0423 73.0478 18.0401 72.92L18.0401 72.12C18.0401 70.52 17.6531 69.107 16.8801 67.88C16.1071 66.653 15.0271 65.7 13.6401 65.02C12.2531 64.34 10.6671 64 8.88007 64C7.17307 64 5.65307 64.313 4.32006 64.94C2.98706 65.567 1.95306 66.46 1.22007 67.62C0.487065 68.78 0.120068 70.133 0.120068 71.68C0.120068 73.227 0.480068 74.547 1.20007 75.64C1.92007 76.733 2.78707 77.627 3.80007 78.32C4.81307 79.013 6.12007 79.76 7.72007 80.56C9.02707 81.227 9.99307 81.753 10.6201 82.14C11.2471 82.527 11.7331 82.94 12.0801 83.38C12.4271 83.82 12.6001 84.347 12.6001 84.96C12.6001 85.787 12.3271 86.467 11.7801 87C11.2331 87.533 10.4401 87.8 9.40007 87.8C8.22707 87.8 7.29307 87.487 6.60007 86.86C5.90707 86.233 5.56007 85.453 5.56007 84.52L5.56007 83.76C5.56233 83.6322 5.51167 83.5092 5.42007 83.42C5.33092 83.3284 5.20787 83.2777 5.08007 83.28L0.480072 83.28C0.352276 83.2777 0.229225 83.3284 0.140072 83.42C0.0484774 83.5092 -0.0021894 83.6322 7.27177e-05 83.76L7.27177e-05 84.8C7.27177e-05 86.347 0.380074 87.713 1.14007 88.9C1.90007 90.087 2.97307 91.007 4.36007 91.66C5.74707 92.313 7.36007 92.64 9.20007 92.64L9.20007 92.64ZM30.2801 92.64C32.0931 92.64 33.6931 92.287 35.0801 91.58C36.4671 90.873 37.5401 89.867 38.3001 88.56C39.0601 87.253 39.4401 85.747 39.4401 84.04L39.4401 83.92C39.4423 83.7922 39.3917 83.6692 39.3001 83.58C39.2109 83.4884 39.0879 83.4378 38.9601 83.44L34.2801 83.24C33.9601 83.24 33.8001 83.387 33.8001 83.68L33.8001 84.2C33.8001 85.293 33.4801 86.167 32.8401 86.82C32.2001 87.473 31.3471 87.8 30.2801 87.8C29.2131 87.8 28.3601 87.473 27.7201 86.82C27.0801 86.167 26.7601 85.293 26.7601 84.2L26.7601 72.48C26.7601 71.387 27.0801 70.507 27.7201 69.84C28.3601 69.173 29.2131 68.84 30.2801 68.84C31.3471 68.84 32.2001 69.173 32.8401 69.84C33.4801 70.507 33.8001 71.387 33.8001 72.48L33.8001 73C33.8001 73.293 33.9601 73.44 34.2801 73.44L38.9601 73.24C39.0918 73.2408 39.2167 73.182 39.3001 73.08C39.3901 72.9817 39.4401 72.8533 39.4401 72.72L39.4401 72.52C39.4401 70.813 39.0601 69.32 38.3001 68.04C37.5401 66.76 36.4671 65.767 35.0801 65.06C33.6931 64.353 32.0931 64 30.2801 64C28.4671 64 26.8671 64.36 25.4801 65.08C24.0931 65.8 23.0201 66.82 22.2601 68.14C21.5001 69.46 21.1201 70.987 21.1201 72.72L21.1201 83.84C21.1201 85.6 21.5001 87.147 22.2601 88.48C23.0072 89.801 24.1272 90.8724 25.4801 91.56C26.8671 92.28 28.4671 92.64 30.2801 92.64L30.2801 92.64ZM48.2001 92.32C48.3279 92.3223 48.4509 92.2716 48.5401 92.18C48.6317 92.0909 48.6823 91.9678 48.6801 91.84L48.6801 64.8C48.6823 64.6722 48.6317 64.5492 48.5401 64.46C48.4509 64.3684 48.3279 64.3177 48.2001 64.32L43.5201 64.32C43.3923 64.3177 43.2692 64.3684 43.1801 64.46C43.0885 64.5492 43.0378 64.6722 43.0401 64.8L43.0401 91.84C43.0401 91.973 43.0871 92.087 43.1801 92.18C43.2731 92.273 43.3871 92.32 43.5201 92.32L48.2001 92.32L48.2001 92.32ZM61.2801 92.64C64.0001 92.64 66.1801 91.927 67.8201 90.5C69.4601 89.073 70.2801 87.147 70.2801 84.72C70.2801 83.36 69.9871 82.2 69.4001 81.24C68.8399 80.3089 68.0986 79.4996 67.2201 78.86C66.3531 78.233 65.1471 77.493 63.6001 76.64L62.7601 76.16C61.4001 75.493 60.3871 74.953 59.7201 74.54C59.0531 74.127 58.5601 73.693 58.2401 73.24C57.9201 72.787 57.7601 72.253 57.7601 71.64C57.7601 70.76 58.0331 70.073 58.5801 69.58C59.1271 69.087 59.8801 68.84 60.8401 68.84C61.9871 68.84 62.8931 69.16 63.5601 69.8C64.2271 70.44 64.5601 71.24 64.5601 72.2L64.5601 72.92C64.5601 73.053 64.6071 73.167 64.7001 73.26C64.7931 73.353 64.9071 73.4 65.0401 73.4L69.6401 73.4C69.7679 73.4023 69.8909 73.3516 69.9801 73.26C70.0717 73.1709 70.1223 73.0478 70.1201 72.92L70.1201 72.12C70.1201 70.52 69.7331 69.107 68.9601 67.88C68.1871 66.653 67.1071 65.7 65.7201 65.02C64.3331 64.34 62.7471 64 60.9601 64C59.2531 64 57.7331 64.313 56.4001 64.94C55.0671 65.567 54.0331 66.46 53.3001 67.62C52.5671 68.78 52.2001 70.133 52.2001 71.68C52.2001 73.227 52.5601 74.547 53.2801 75.64C54.0001 76.733 54.8671 77.627 55.8801 78.32C56.8931 79.013 58.2001 79.76 59.8001 80.56C61.1071 81.227 62.0731 81.753 62.7001 82.14C63.3271 82.527 63.8131 82.94 64.1601 83.38C64.5071 83.82 64.6801 84.347 64.6801 84.96C64.6801 85.787 64.4071 86.467 63.8601 87C63.3131 87.533 62.5201 87.8 61.4801 87.8C60.3071 87.8 59.3731 87.487 58.6801 86.86C57.9871 86.233 57.6401 85.453 57.6401 84.52L57.6401 83.76C57.6423 83.6322 57.5917 83.5092 57.5001 83.42C57.4109 83.3284 57.2879 83.2777 57.1601 83.28L52.5601 83.28C52.4323 83.2777 52.3092 83.3284 52.2201 83.42C52.1285 83.5092 52.0778 83.6322 52.0801 83.76L52.0801 84.8C52.0801 86.347 52.4601 87.713 53.2201 88.9C53.9801 90.087 55.0531 91.007 56.4401 91.66C57.8271 92.313 59.4401 92.64 61.2801 92.64L61.2801 92.64ZM82.0801 92.64C84.8001 92.64 86.9801 91.927 88.6201 90.5C90.2601 89.073 91.0801 87.147 91.0801 84.72C91.0801 83.36 90.7871 82.2 90.2001 81.24C89.6399 80.3089 88.8986 79.4996 88.0201 78.86C87.1531 78.233 85.9471 77.493 84.4001 76.64L83.5601 76.16C82.2001 75.493 81.1871 74.953 80.5201 74.54C79.8531 74.127 79.3601 73.693 79.0401 73.24C78.7201 72.787 78.5601 72.253 78.5601 71.64C78.5601 70.76 78.8331 70.073 79.3801 69.58C79.9271 69.087 80.6801 68.84 81.6401 68.84C82.7871 68.84 83.6931 69.16 84.3601 69.8C85.0271 70.44 85.3601 71.24 85.3601 72.2L85.3601 72.92C85.3601 73.053 85.4071 73.167 85.5001 73.26C85.5931 73.353 85.7071 73.4 85.8401 73.4L90.4401 73.4C90.5679 73.4023 90.6909 73.3516 90.7801 73.26C90.8717 73.1709 90.9223 73.0478 90.9201 72.92L90.9201 72.12C90.9201 70.52 90.5331 69.107 89.7601 67.88C88.9871 66.653 87.9071 65.7 86.5201 65.02C85.1331 64.34 83.5471 64 81.7601 64C80.0531 64 78.5331 64.313 77.2001 64.94C75.8671 65.567 74.8331 66.46 74.1001 67.62C73.3671 68.78 73.0001 70.133 73.0001 71.68C73.0001 73.227 73.3601 74.547 74.0801 75.64C74.8001 76.733 75.6671 77.627 76.6801 78.32C77.6931 79.013 79.0001 79.76 80.6001 80.56C81.9071 81.227 82.8731 81.753 83.5001 82.14C84.1271 82.527 84.6131 82.94 84.9601 83.38C85.3071 83.82 85.4801 84.347 85.4801 84.96C85.4801 85.787 85.2071 86.467 84.6601 87C84.1131 87.533 83.3201 87.8 82.2801 87.8C81.1071 87.8 80.1731 87.487 79.4801 86.86C78.7871 86.233 78.4401 85.453 78.4401 84.52L78.4401 83.76C78.4423 83.6322 78.3917 83.5092 78.3001 83.42C78.2109 83.3284 78.0879 83.2777 77.9601 83.28L73.3601 83.28C73.2323 83.2777 73.1092 83.3284 73.0201 83.42C72.9285 83.5092 72.8778 83.6322 72.8801 83.76L72.8801 84.8C72.8801 86.347 73.2601 87.713 74.0201 88.9C74.7801 90.087 75.8531 91.007 77.2401 91.66C78.6271 92.313 80.2401 92.64 82.0801 92.64L82.0801 92.64ZM103.28 92.68C105.12 92.68 106.747 92.307 108.16 91.56C109.573 90.813 110.667 89.76 111.44 88.4C112.213 87.04 112.6 85.453 112.6 83.64L112.6 73C112.6 71.213 112.213 69.64 111.44 68.28C110.667 66.92 109.573 65.867 108.16 65.12C106.747 64.373 105.12 64 103.28 64C101.44 64 99.8201 64.373 98.4201 65.12C97.0511 65.8365 95.9189 66.9341 95.1601 68.28C94.3871 69.64 94.0001 71.213 94.0001 73L94.0001 83.64C94.0001 85.453 94.3871 87.04 95.1601 88.4C95.9189 89.7459 97.0511 90.8435 98.4201 91.56C99.8201 92.307 101.44 92.68 103.28 92.68L103.28 92.68ZM103.28 87.84C102.187 87.84 101.307 87.473 100.64 86.74C99.9731 86.007 99.6401 85.053 99.6401 83.88L99.6401 72.84C99.6401 71.64 99.9731 70.673 100.64 69.94C101.307 69.207 102.187 68.84 103.28 68.84C104.4 68.84 105.293 69.207 105.96 69.94C106.627 70.673 106.96 71.64 106.96 72.84L106.96 83.88C106.96 85.053 106.627 86.007 105.96 86.74C105.293 87.473 104.4 87.84 103.28 87.84L103.28 87.84ZM121.52 92.32C121.648 92.3223 121.771 92.2716 121.86 92.18C121.952 92.0909 122.002 91.9678 122 91.84L122 80.92C122 80.787 122.067 80.72 122.2 80.72L124.72 80.72C124.8 80.72 124.867 80.773 124.92 80.88L128.96 91.92C129.04 92.187 129.227 92.32 129.52 92.32L134.4 92.32C134.693 92.32 134.84 92.2 134.84 91.96C134.842 91.8911 134.829 91.8227 134.8 91.76L130.24 80.28C130.187 80.147 130.227 80.053 130.36 80C131.72 79.387 132.773 78.453 133.52 77.2C134.267 75.947 134.64 74.467 134.64 72.76C134.64 71.107 134.307 69.64 133.64 68.36C133.003 67.1115 132.016 66.0759 130.8 65.38C129.573 64.673 128.173 64.32 126.6 64.32L116.84 64.32C116.712 64.3177 116.589 64.3684 116.5 64.46C116.409 64.5491 116.358 64.6722 116.36 64.8L116.36 91.84C116.36 91.973 116.407 92.087 116.5 92.18C116.593 92.273 116.707 92.32 116.84 92.32L121.52 92.32L121.52 92.32ZM125.68 76.4L122.2 76.4C122.067 76.4 122 76.333 122 76.2L122 69.36C122 69.227 122.067 69.16 122.2 69.16L125.68 69.16C126.667 69.16 127.467 69.487 128.08 70.14C128.693 70.793 129 71.68 129 72.8C129 73.893 128.693 74.767 128.08 75.42C127.467 76.073 126.667 76.4 125.68 76.4L125.68 76.4ZM146.48 92.64C149.2 92.64 151.38 91.927 153.02 90.5C154.66 89.073 155.48 87.147 155.48 84.72C155.48 83.36 155.187 82.2 154.6 81.24C154.04 80.3089 153.299 79.4996 152.42 78.86C151.553 78.233 150.347 77.493 148.8 76.64L147.96 76.16C146.6 75.493 145.587 74.953 144.92 74.54C144.253 74.127 143.76 73.693 143.44 73.24C143.12 72.787 142.96 72.253 142.96 71.64C142.96 70.76 143.233 70.073 143.78 69.58C144.327 69.087 145.08 68.84 146.04 68.84C147.187 68.84 148.093 69.16 148.76 69.8C149.427 70.44 149.76 71.24 149.76 72.2L149.76 72.92C149.76 73.053 149.807 73.167 149.9 73.26C149.993 73.353 150.107 73.4 150.24 73.4L154.84 73.4C154.968 73.4023 155.091 73.3516 155.18 73.26C155.272 73.1709 155.322 73.0478 155.32 72.92L155.32 72.12C155.32 70.52 154.933 69.107 154.16 67.88C153.387 66.653 152.307 65.7 150.92 65.02C149.533 64.34 147.947 64 146.16 64C144.453 64 142.933 64.313 141.6 64.94C140.267 65.567 139.233 66.46 138.5 67.62C137.767 68.78 137.4 70.133 137.4 71.68C137.4 73.227 137.76 74.547 138.48 75.64C139.2 76.733 140.067 77.627 141.08 78.32C142.093 79.013 143.4 79.76 145 80.56C146.307 81.227 147.273 81.753 147.9 82.14C148.527 82.527 149.013 82.94 149.36 83.38C149.707 83.82 149.88 84.347 149.88 84.96C149.88 85.787 149.607 86.467 149.06 87C148.513 87.533 147.72 87.8 146.68 87.8C145.507 87.8 144.573 87.487 143.88 86.86C143.187 86.233 142.84 85.453 142.84 84.52L142.84 83.76C142.842 83.6322 142.792 83.5092 142.7 83.42C142.611 83.3284 142.488 83.2778 142.36 83.28L137.76 83.28C137.632 83.2777 137.509 83.3284 137.42 83.42C137.329 83.5092 137.278 83.6322 137.28 83.76L137.28 84.8C137.28 86.347 137.66 87.713 138.42 88.9C139.18 90.087 140.253 91.007 141.64 91.66C143.027 92.313 144.64 92.64 146.48 92.64L146.48 92.64Z" id="b" fill="#FFFFFF" fill-rule="evenodd" stroke="none" />
      </g>
    </g>
  </g>
</svg>